<?xml version="1.0" standalone="no"?>
<!DOCTYPE svg PUBLIC "-//W3C//DTD SVG 20010904//EN"
 "http://www.w3.org/TR/2001/REC-SVG-20010904/DTD/svg10.dtd">
<svg version="1.0" xmlns="http://www.w3.org/2000/svg"
 width="700.000000pt" height="700.000000pt" viewBox="0 0 700.000000 700.000000"
 preserveAspectRatio="xMidYMid meet">
<metadata>
Created by potrace 1.14, written by Peter Selinger 2001-2017
</metadata>
<g transform="translate(0.000000,700.000000) scale(0.100000,-0.100000)"
fill="#000000" stroke="none">
<path d="M20 3510 l0 -3490 3490 0 3490 0 0 2888 0 2887 -603 603 -602 602
-2888 0 -2887 0 0 -3490z m6152 2663 l508 -508 0 -2662 0 -2663 -3170 0 -3170
0 0 3170 0 3170 2662 0 2663 0 507 -507z"/>
<path d="M3836 6313 c-8 -28 -1076 -5708 -1076 -5725 0 -11 49 -23 197 -51
108 -21 200 -34 203 -30 11 12 1083 5722 1077 5736 -3 8 -75 26 -183 46 -99
18 -187 35 -196 37 -10 3 -19 -2 -22 -13z"/>
<path d="M2350 5309 c-116 -23 -221 -106 -273 -217 -29 -60 -32 -77 -32 -157
0 -82 3 -97 33 -157 85 -172 283 -257 468 -200 222 69 334 315 235 517 -55
112 -160 192 -280 215 -62 11 -88 11 -151 -1z"/>
<path d="M4475 5306 c-116 -29 -206 -103 -258 -214 -28 -59 -32 -77 -31 -152
1 -155 75 -275 212 -342 61 -30 74 -33 162 -33 87 0 101 3 161 32 208 103 280
353 157 545 -54 86 -141 144 -246 167 -65 13 -92 13 -157 -3z"/>
<path d="M1551 4546 c-56 -19 -138 -75 -174 -121 -16 -20 -40 -61 -55 -93 -24
-50 -27 -69 -27 -162 0 -96 3 -110 29 -165 117 -239 421 -291 608 -104 185
185 130 509 -106 624 -49 24 -75 30 -145 32 -55 2 -102 -2 -130 -11z"/>
<path d="M5185 4540 c-110 -44 -198 -139 -231 -246 -19 -62 -19 -175 0 -237
42 -137 167 -247 303 -265 169 -22 324 61 399 213 27 55 29 69 29 170 0 101
-2 115 -28 168 -37 74 -110 147 -183 183 -78 38 -213 45 -289 14z"/>
<path d="M825 3781 c-140 -37 -245 -142 -281 -281 -51 -199 73 -404 276 -456
175 -45 360 44 436 209 25 54 29 74 29 157 0 86 -3 101 -31 160 -62 131 -182
211 -323 216 -42 2 -89 0 -106 -5z"/>
<path d="M5983 3781 c-109 -28 -212 -115 -261 -219 -23 -49 -27 -70 -27 -152
0 -88 3 -101 33 -162 144 -293 565 -287 705 10 28 59 32 77 32 153 0 78 -3 91
-37 161 -67 134 -183 210 -333 214 -44 2 -94 -1 -112 -5z"/>
<path d="M5220 3025 c-70 -20 -124 -52 -178 -106 -181 -183 -121 -496 116
-607 50 -24 70 -27 157 -27 87 0 107 3 155 26 82 39 144 99 182 177 31 63 33
73 33 172 0 96 -2 110 -30 163 -80 159 -271 247 -435 202z"/>
<path d="M1570 3004 c-74 -20 -126 -52 -184 -113 -74 -80 -91 -126 -91 -251 0
-99 2 -109 33 -172 38 -78 100 -138 182 -177 48 -23 68 -26 155 -26 87 0 107
3 157 27 114 53 195 160 218 286 35 194 -99 389 -298 431 -68 14 -104 13 -172
-5z"/>
<path d="M2313 2266 c-104 -34 -195 -114 -241 -214 -22 -48 -27 -71 -27 -147
0 -80 3 -97 31 -155 162 -337 660 -278 735 87 32 158 -56 330 -208 405 -57 28
-78 33 -157 35 -57 2 -107 -2 -133 -11z"/>
<path d="M4460 2251 c-109 -36 -212 -130 -251 -229 -34 -87 -33 -208 4 -285
33 -71 64 -110 128 -159 65 -48 133 -70 222 -70 168 1 302 99 357 262 59 173
-29 375 -199 457 -46 22 -73 27 -146 30 -49 1 -101 -1 -115 -6z"/>
</g>
</svg>
