<svg width="353" height="353" xmlns="http://www.w3.org/2000/svg" xmlns:xlink="http://www.w3.org/1999/xlink" overflow="hidden"><defs><clipPath id="clip0"><rect x="691" y="34" width="353" height="353"/></clipPath></defs><g clip-path="url(#clip0)" transform="translate(-691 -34)"><path d="M700 42 979.999 42 1036 98.0011 1036 378 700 378Z" stroke="#000000" stroke-width="15.6667" stroke-miterlimit="8" fill="#FFFFFF" fill-rule="evenodd"/><path d="M902 138C902 127.507 910.507 119 921 119 931.493 119 940 127.507 940 138 940 148.493 931.493 157 921 157 910.507 157 902 148.493 902 138Z" fill="#00B0F0" fill-rule="evenodd"/><path d="M940 176.5C940 165.73 948.507 157 959 157 969.493 157 978 165.73 978 176.5 978 187.27 969.493 196 959 196 948.507 196 940 187.27 940 176.5Z" fill="#00B050" fill-rule="evenodd"/><path d="M940 253C940 242.507 948.507 234 959 234 969.493 234 978 242.507 978 253 978 263.493 969.493 272 959 272 948.507 272 940 263.493 940 253Z" fill="#FF0000" fill-rule="evenodd"/><path d="M718 215C718 204.507 726.507 196 737 196 747.493 196 756 204.507 756 215 756 225.493 747.493 234 737 234 726.507 234 718 225.493 718 215Z" fill="#FF0000" fill-rule="evenodd"/><path d="M756 254C756 243.507 764.507 235 775 235 785.493 235 794 243.507 794 254 794 264.493 785.493 273 775 273 764.507 273 756 264.493 756 254Z" fill-rule="evenodd"/><path d="M794 138C794 127.507 802.73 119 813.5 119 824.27 119 833 127.507 833 138 833 148.493 824.27 157 813.5 157 802.73 157 794 148.493 794 138Z" fill="#00B050" fill-rule="evenodd"/><path d="M756 176.5C756 165.73 764.507 157 775 157 785.493 157 794 165.73 794 176.5 794 187.27 785.493 196 775 196 764.507 196 756 187.27 756 176.5Z" fill="#00B0F0" fill-rule="evenodd"/><path d="M794 291C794 280.507 802.73 272 813.5 272 824.27 272 833 280.507 833 291 833 301.493 824.27 310 813.5 310 802.73 310 794 301.493 794 291Z" fill="#00B050" fill-rule="evenodd"/><path d="M978 215C978 204.507 986.73 196 997.5 196 1008.27 196 1017 204.507 1017 215 1017 225.493 1008.27 234 997.5 234 986.73 234 978 225.493 978 215Z" fill-rule="evenodd"/><path d="M902 292C902 281.507 910.507 273 921 273 931.493 273 940 281.507 940 292 940 302.493 931.493 311 921 311 910.507 311 902 302.493 902 292Z" fill="#00B0F0" fill-rule="evenodd"/><path d="M884.699 68.0393 904.895 71.8403 850.348 361.654 830.153 357.853Z" fill-rule="evenodd"/></g></svg>